<svg width="34" height="41" viewBox="0 0 34 41" fill="none" xmlns="http://www.w3.org/2000/svg">
<rect x="28.7386" y="5" width="4" height="39.1826" rx="2" transform="rotate(28.5703 28.7386 5)" fill="#C4C4C4"/>
<rect x="19.7386" width="4" height="39.1826" rx="2" transform="rotate(28.5703 19.7386 0)" fill="#C4C4C4"/>
<path d="M18.6011 3.69615C18.4093 2.60836 19.1356 1.57104 20.2234 1.37924V1.37924C21.3112 1.18743 22.3485 1.91377 22.5403 3.00155L24.0375 11.4926C24.2293 12.5803 23.503 13.6177 22.4152 13.8095V13.8095C21.3274 14.0013 20.2901 13.2749 20.0983 12.1871L18.6011 3.69615Z" fill="#C4C4C4"/>
<path d="M23.1828 13.5092C22.2262 14.0615 21.003 13.7338 20.4507 12.7772V12.7772C19.8984 11.8206 20.2262 10.5974 21.1828 10.0451L28.5502 5.79151C29.5068 5.23923 30.73 5.56698 31.2823 6.52356V6.52356C31.8346 7.48015 31.5068 8.70333 30.5502 9.25561L23.1828 13.5092Z" fill="#C4C4C4"/>
<rect x="1" y="17" width="17" height="4" rx="2" fill="#8678A5"/>
<rect x="1" y="1" width="4" height="36" rx="2" fill="#8678A5"/>
<rect x="0.329407" y="2.77197" width="4" height="24.1782" rx="2" transform="rotate(-40 0.329407 2.77197)" fill="#8678A5"/>
<rect x="3.3988" y="37.9583" width="4" height="24.8437" rx="2" transform="rotate(-140 3.3988 37.9583)" fill="#8678A5"/>
</svg>
